<?xml version="1.0" encoding="iso-8859-1"?>
<!-- Generator: Adobe Illustrator 19.0.0, SVG Export Plug-In . SVG Version: 6.00 Build 0)  -->
<svg version="1.1" id="Layer_1" xmlns="http://www.w3.org/2000/svg" xmlns:xlink="http://www.w3.org/1999/xlink" x="0px" y="0px"
	 viewBox="0 0 504 504" style="enable-background:new 0 0 504 504;" xml:space="preserve">
<g>
	<g>
		<path d="M452.704,108.74c-0.068-0.344-0.164-0.672-0.272-1.004c-0.056-0.152-0.076-0.312-0.136-0.464
			c-0.148-0.356-0.34-0.692-0.54-1.024c-0.064-0.104-0.104-0.224-0.18-0.328c-0.284-0.432-0.612-0.832-0.976-1.196L348.184,2.308
			c-0.36-0.368-0.76-0.696-1.192-0.98c-0.108-0.072-0.224-0.116-0.332-0.18c-0.328-0.2-0.66-0.396-1.02-0.544
			c-0.152-0.064-0.312-0.092-0.468-0.148c-0.328-0.112-0.656-0.236-1-0.304C343.664,0.056,343.14,0,342.612,0h-267.8
			C61.784,0,51.188,10.592,51.188,23.62v456.752C51.188,493.4,61.784,504,74.812,504h354.476c13.028,0,23.524-10.6,23.524-23.628
			V110.296C452.812,109.768,452.808,109.248,452.704,108.74z M437.064,480.372c0,4.34-3.428,7.88-7.772,7.88H74.812
			c-4.344,0-7.876-3.54-7.876-7.88V23.62c0-4.34,3.532-7.872,7.876-7.872h259.876v68.296c0,18.816,15.36,34.08,34.172,34.08h68.204
			V480.372z"/>
	</g>
</g>
<g>
	<g>
		<path d="M405.56,165.372H98.436c-4.352,0-7.876,3.528-7.876,7.876v236.248c0,4.348,3.524,7.876,7.876,7.876H405.56
			c4.348,0,7.876-3.528,7.876-7.876V173.248C413.436,168.9,409.908,165.372,405.56,165.372z M129.936,401.624h-23.624V378h23.624
			V401.624z M129.936,362.248h-23.624v-23.624h23.624V362.248z M129.936,322.872h-23.624v-23.624h23.624V322.872z M129.936,283.5
			h-23.624v-23.624h23.624V283.5z M129.936,244.124h-23.624V220.5h23.624V244.124z M129.936,204.748h-23.624v-23.624h23.624V204.748
			z M232.312,401.624h-86.624V378h86.624V401.624z M232.312,362.248h-86.624v-23.624h86.624V362.248z M232.312,322.872h-86.624
			v-23.624h86.624V322.872z M232.312,283.5h-86.624v-23.624h86.624V283.5z M232.312,244.124h-86.624V220.5h86.624V244.124z
			 M232.312,204.752h-86.624v-23.624h86.624V204.752z M315,401.624h-66.936V378H315V401.624z M315,362.248h-66.936v-23.624H315
			V362.248z M315,322.872h-66.936v-23.624H315V322.872z M315,283.5h-66.936v-23.624H315V283.5z M315,244.124h-66.936V220.5H315
			V244.124z M315,204.752h-66.936v-23.624H315V204.752z M397.688,401.624h-66.936V378h66.936V401.624z M397.688,362.248h-66.936
			v-23.624h66.936V362.248z M397.688,322.872h-66.936v-23.624h66.936V322.872z M397.688,283.5h-66.936v-23.624h66.936V283.5z
			 M397.688,244.124h-66.936V220.5h66.936V244.124z M397.688,204.752L397.688,204.752h-66.936v-23.624h66.936V204.752z"/>
	</g>
</g>
<g>
</g>
<g>
</g>
<g>
</g>
<g>
</g>
<g>
</g>
<g>
</g>
<g>
</g>
<g>
</g>
<g>
</g>
<g>
</g>
<g>
</g>
<g>
</g>
<g>
</g>
<g>
</g>
<g>
</g>
</svg>
